<?xml version="1.0" standalone="no"?><!DOCTYPE svg PUBLIC "-//W3C//DTD SVG 1.1//EN" "http://www.w3.org/Graphics/SVG/1.1/DTD/svg11.dtd"><svg class="icon" width="200px" height="200.00px" viewBox="0 0 1024 1024" version="1.1" xmlns="http://www.w3.org/2000/svg"><path d="M512 512m-435.2 0a435.2 435.2 0 1 0 870.4 0 435.2 435.2 0 1 0-870.4 0Z" fill="#FE6D68" /><path d="M563.2 512l108.8-108.8c12.8-12.8 12.8-38.4 0-51.2-12.8-12.8-38.4-12.8-51.2 0L512 460.8 403.2 352c-12.8-12.8-38.4-12.8-51.2 0-12.8 12.8-12.8 38.4 0 51.2L460.8 512 352 620.8c-12.8 12.8-12.8 38.4 0 51.2 12.8 12.8 38.4 12.8 51.2 0L512 563.2l108.8 108.8c12.8 12.8 38.4 12.8 51.2 0 12.8-12.8 12.8-38.4 0-51.2L563.2 512z" fill="#FFFFFF" /></svg>