<?xml version="1.0" encoding="UTF-8"?>
<svg width="20px" height="20px" viewBox="0 0 20 20" version="1.1" xmlns="http://www.w3.org/2000/svg" xmlns:xlink="http://www.w3.org/1999/xlink">
    <title>warning-circle</title>
    <g id="页面-1" stroke="none" stroke-width="1" fill="none" fill-rule="evenodd">
        <g id="iPhone-12备份-8" transform="translate(-61.000000, -294.000000)" fill-rule="nonzero">
            <g id="warning-circle" transform="translate(61.000000, 294.000000)">
                <path d="M10.2,0.4 C4.788125,0.4 0.4,4.788125 0.4,10.2 C0.4,15.611875 4.788125,20 10.2,20 C15.611875,20 20,15.611875 20,10.2 C20,4.788125 15.611875,0.4 10.2,0.4 Z" id="形状" fill="#267FE3"></path>
                <path d="M9.15,14.05 C9.15,14.629899 9.62010101,15.1 10.2,15.1 C10.779899,15.1 11.25,14.629899 11.25,14.05 C11.25,13.470101 10.779899,13 10.2,13 C9.62010101,13 9.15,13.470101 9.15,14.05 Z" id="路径" fill="#FFFFFF"></path>
                <path d="M9.675,11.6 L10.725,11.6 C10.82125,11.6 10.9,11.52125 10.9,11.425 L10.9,5.475 C10.9,5.37875 10.82125,5.3 10.725,5.3 L9.675,5.3 C9.57875,5.3 9.5,5.37875 9.5,5.475 L9.5,11.425 C9.5,11.52125 9.57875,11.6 9.675,11.6 Z" id="路径" fill="#FFFFFF"></path>
            </g>
        </g>
    </g>
</svg>